<svg enable-background="new 0 0 160 100" viewBox="0 0 160 100" xmlns="http://www.w3.org/2000/svg"><g fill="#e6e7e8"><path d="m138.6 93.8h-117.2c-8.4 0-12.8-4.5-12.8-12.8v-54.8c0-8.4 4.4-12.8 12.8-12.8h26.9c1.5-5.2 5.6-7.8 12.2-7.8h39.1c6.6 0 10.7 2.6 12.2 7.8h26.9c8.4 0 12.8 4.4 12.8 12.8v54.8c-.1 8.3-4.5 12.8-12.9 12.8zm-117.2-78.2c-7.3 0-10.7 3.4-10.7 10.7v54.7c0 7.3 3.4 10.7 10.7 10.7h117.3c7.3 0 10.7-3.4 10.7-10.7v-54.8c0-7.3-3.4-10.7-10.7-10.7h-28.7l-.2-.8c-1.1-4.7-4.4-7-10.3-7h-39c-5.9 0-9.2 2.3-10.3 7l-.2.9z"/><path d="m80 82c-15.7 0-28.4-12.8-28.4-28.4 0-15.7 12.8-28.4 28.4-28.4 9.3 0 18 4.6 23.4 12.2.3.5.2 1.1-.3 1.5s-1.1.2-1.5-.3c-4.9-7.1-13-11.3-21.6-11.3-14.5 0-26.3 11.8-26.3 26.3s11.8 26.3 26.3 26.3c8.6 0 16.7-4.2 21.6-11.3.3-.5 1-.6 1.5-.3s.6 1 .3 1.5c-5.4 7.7-14.1 12.2-23.4 12.2z"/></g></svg>